{"title":"Ross.noble.freewheeling.s01e04.hdtv.x264-KC.mp4","uid":9671184,"size":402427083,"categoryP":"video","categoryS":"tv_shows","magnet":"?xt=urn:btih:a161c933a3546033b88d3a3ef81919dbd6a9903b&amp;dn=Ross.noble.freewheeling.s01e04.hdtv.x264-KC.mp4&amp;tr=udp%3A%2F%2Ftracker.openbittorrent.com%3A80&amp;tr=udp%3A%2F%2Fopen.demonii.com%3A1337&amp;tr=udp%3A%2F%2Ftracker.coppersurfer.tk%3A6969&amp;tr=udp%3A%2F%2Fexodus.desync.com%3A6969","seeders":1,"leechers":0,"uploader":null,"files":-1,"time":1393465621,"description":"The long-lost 4th episode of Ross Noble's 6-episode first series of Freewheeling. Episodes 1, 2, 3, 5, and 6 are available here on TPB and elsewhere.\n\nEnjoy!\n\n\n\nGeneral\nFormat                                   : MPEG-4\nFormat profile                           : Base Media / Version 2\nCodec ID                                 : mp42\nFile size                                : 384 MiB\nDuration                                 : 44mn 50s\nOverall bit rate mode                    : Variable\nOverall bit rate                         : 1 196 Kbps\nEncoded date                             : UTC 2013-12-23 03:30:54\nTagged date                              : UTC 2013-12-23 03:55:07\nWriting application                      : HandBrake 0.9.9 2013052900\n\nVideo\nID                                       : 1\nFormat                                   : AVC\nFormat/Info                              : Advanced Video Codec\nFormat profile                           : &lt;a class=&quot;__cf_email__&quot; href=&quot;/cdn-cgi/l/email-protection&quot; data-cfemail=&quot;084569616648443c2638&quot;&gt;[email&amp;#160;protected]&lt;/a&gt;&lt;script cf-hash='f9e31' type=&quot;text/javascript&quot;&gt;\n/* &lt;![CDATA[ */!function(){try{var t=&quot;currentScript&quot;in document?document.currentScript:function(){for(var t=document.getElementsByTagName(&quot;script&quot;),e=t.length;e--;)if(t[e].getAttribute(&quot;cf-hash&quot;))return t[e]}();if(t&amp;&amp;t.previousSibling){var e,r,n,i,c=t.previousSibling,a=c.getAttribute(&quot;data-cfemail&quot;);if(a){for(e=&quot;&quot;,r=parseInt(a.substr(0,2),16),n=2;a.length-n;n+=2)i=parseInt(a.substr(n,2),16)^r,e+=String.fromCharCode(i);e=document.createTextNode(e),c.parentNode.replaceChild(e,c)}}}catch(u){}}();/* ]]&gt; */&lt;/script&gt;\nFormat settings, CABAC                   : Yes\nFormat settings, ReFrames                : 4 frames\nCodec ID                                 : avc1\nCodec ID/Info                            : Advanced Video Coding\nDuration                                 : 44mn 50s\nBit rate mode                            : Variable\nBit rate                                 : 1 000 Kbps\nWidth                                    : 720 pixels\nHeight                                   : 400 pixels\nDisplay aspect ratio                     : 16:9\nFrame rate mode                          : Constant\nFrame rate                               : 25.000 fps\nColor space                              : YUV\nChroma subsampling                       : 4:2:0\nBit depth                                : 8 bits\nScan type                                : Progressive\nBits/(Pixel*Frame)                       : 0.139\nStream size                              : 321 MiB (84%)\nWriting library                          : x264 core 130 r2273 b3065e6\nEncoded date                             : UTC 2013-12-23 03:30:54\nTagged date                              : UTC 2013-12-23 03:55:07\nColor primaries                          : BT.709\nTransfer characteristics                 : BT.709\nMatrix coefficients                      : BT.709\n\nAudio\nID                                       : 2\nFormat                                   : AAC\nFormat/Info                              : Advanced Audio Codec\nFormat profile                           : LC\nCodec ID                                 : 40\nDuration                                 : 44mn 50s\nBit rate mode                            : Variable\nBit rate                                 : 192 Kbps\nMaximum bit rate                         : 310 Kbps\nChannel(s)                               : 2 channels\nChannel positions                        : Front: L R\nSampling rate                            : 48.0 KHz\nCompression mode                         : Lossy\nDelay relative to video                  : 80ms\nStream size                              : 61.6 MiB (16%)\nLanguage                                 : English\nEncoded date                             : UTC 2013-12-23 03:30:54\nTagged date                              : UTC 2013-12-23 03:55:06\n\n","torrent":{"xt":"urn:btih:a161c933a3546033b88d3a3ef81919dbd6a9903b","amp;dn":"Ross.noble.freewheeling.s01e04.hdtv.x264-KC.mp4","amp;tr":["udp%3A%2F%2Ftracker.openbittorrent.com%3A80","udp%3A%2F%2Fopen.demonii.com%3A1337","udp%3A%2F%2Ftracker.coppersurfer.tk%3A6969","udp%3A%2F%2Fexodus.desync.com%3A6969"],"infoHash":"a161c933a3546033b88d3a3ef81919dbd6a9903b","infoHashBuffer":{"type":"Buffer","data":[161,97,201,51,163,84,96,51,184,141,58,62,248,25,25,219,214,169,144,59]},"announce":[],"urlList":[]}}